<svg xmlns="http://www.w3.org/2000/svg" width="18.569" height="18.593" viewBox="0 0 18.569 18.593">
  <g id="_002-dribble" data-name="002-dribble" transform="translate(-0.328)">
    <path id="Path_4" data-name="Path 4" d="M11.563,37.346a23.76,23.76,0,0,0,2.593-.675A22.072,22.072,0,0,0,10.092,31.3a9.333,9.333,0,0,0-4.721,6.21A16.024,16.024,0,0,0,11.563,37.346Z" transform="translate(-4.86 -30.163)" fill="#eb383f"/>
    <path id="Path_5" data-name="Path 5" d="M173.7,2.182l-.152.6c-.24.959-2.266,2.331-4.924,3.323l-.12.044A23.186,23.186,0,0,0,164.472.657,9.062,9.062,0,0,1,167.784,0a9.278,9.278,0,0,1,5.567,1.9A2.832,2.832,0,0,1,173.7,2.182Z" transform="translate(-158.183)" fill="#eb383f"/>
    <path id="Path_6" data-name="Path 6" d="M10.745,208.454q-.425-1.16-.948-2.255a23.631,23.631,0,0,1-2.876.763,20.437,20.437,0,0,1-3.965.414,14.255,14.255,0,0,1-2.618-.229c-.022.283,0,.566,0,.861a9.263,9.263,0,0,0,3.344,7.125l.033-.2C4.132,212.43,7.03,209.783,10.745,208.454Z" transform="translate(0 -198.711)" fill="#eb383f"/>
    <path id="Path_7" data-name="Path 7" d="M128.844,296.5a26.131,26.131,0,0,1,1.2,7.423,9.11,9.11,0,0,1-7.5-.973,2.28,2.28,0,0,1-.011-.817C122.874,300.072,125.576,297.686,128.844,296.5Z" transform="translate(-117.74 -285.732)" fill="#eb383f"/>
    <path id="Path_8" data-name="Path 8" d="M331.942,275.46a9.308,9.308,0,0,1-5.429,7.136,27.112,27.112,0,0,0-1.242-7.31A10.4,10.4,0,0,1,331.942,275.46Z" transform="translate(-313.143 -264.846)" fill="#eb383f"/>
    <path id="Path_9" data-name="Path 9" d="M297.347,90.054v.2a11.451,11.451,0,0,0-7.117-.076c-.283-.784-.61-1.547-.959-2.288,1.791-.672,5.132-2.22,5.6-4.085A9.243,9.243,0,0,1,297.347,90.054Z" transform="translate(-278.45 -80.758)" fill="#eb383f"/>
  </g>
</svg>
