<svg xmlns="http://www.w3.org/2000/svg" xmlns:xlink="http://www.w3.org/1999/xlink" width="18.95" height="16.035" viewBox="0 0 18.95 16.035">
  <defs>
    <clipPath id="clip-path">
      <rect width="18.95" height="16.035" fill="none"/>
    </clipPath>
  </defs>
  <g id="_004-github-character" data-name="004-github-character" clip-path="url(#clip-path)">
    <g id="_004-github-character-2" data-name="004-github-character" transform="translate(0 -36.543)">
      <g id="Group_1" data-name="Group 1" transform="translate(0 36.543)">
        <path id="Path_10" data-name="Path 10" d="M17.4,40.939a6.011,6.011,0,0,0,.308-1.913,5.477,5.477,0,0,0-.581-2.483,4.958,4.958,0,0,0-2.152.444,11.886,11.886,0,0,0-2.129,1.378A13.5,13.5,0,0,0,9.657,38a15.149,15.149,0,0,0-3.519.4,12.217,12.217,0,0,0-2.152-1.406,4.929,4.929,0,0,0-2.164-.45,5.476,5.476,0,0,0-.581,2.483,6.148,6.148,0,0,0,.307,1.936A6.7,6.7,0,0,0,0,45.471a8.445,8.445,0,0,0,.706,3.77,4.738,4.738,0,0,0,.979,1.31,5.039,5.039,0,0,0,1.378.923,12,12,0,0,0,1.56.586A10.106,10.106,0,0,0,6.36,52.4q.951.109,1.68.143t1.617.034q1.048,0,1.9-.051a16.749,16.749,0,0,0,1.953-.25,9.747,9.747,0,0,0,1.936-.541,6.166,6.166,0,0,0,1.606-.979,4.593,4.593,0,0,0,1.2-1.515,8.616,8.616,0,0,0,.695-3.77A6.756,6.756,0,0,0,17.4,40.939Zm-1.366,8.285a3.228,3.228,0,0,1-.922,1.173,4.4,4.4,0,0,1-1.389.683,8.372,8.372,0,0,1-1.594.336,16.422,16.422,0,0,1-1.7.08H8.518a16.417,16.417,0,0,1-1.7-.08,8.37,8.37,0,0,1-1.594-.336A4.4,4.4,0,0,1,3.838,50.4a3.226,3.226,0,0,1-.923-1.173,3.94,3.94,0,0,1-.364-1.748,3.54,3.54,0,0,1,.786-2.323A2.61,2.61,0,0,1,5.466,44.2a21.894,21.894,0,0,1,2.221.239,11.73,11.73,0,0,0,1.788.125,11.713,11.713,0,0,0,1.788-.125q1.754-.239,2.221-.239a2.611,2.611,0,0,1,2.129.957,3.54,3.54,0,0,1,.786,2.323A3.942,3.942,0,0,1,16.034,49.224Z" transform="translate(0 -36.543)" fill="#3e7be6"/>
        <path id="Path_11" data-name="Path 11" d="M111.912,256.2a1.074,1.074,0,0,0-1.651,0,2.243,2.243,0,0,0-.49.865,3.134,3.134,0,0,0,0,1.868,2.236,2.236,0,0,0,.49.865,1.073,1.073,0,0,0,1.651,0,2.24,2.24,0,0,0,.49-.865,3.134,3.134,0,0,0,0-1.868A2.243,2.243,0,0,0,111.912,256.2Z" transform="translate(-105.256 -247.062)" fill="#3e7be6"/>
        <path id="Path_12" data-name="Path 12" d="M294.639,256.2a1.073,1.073,0,0,0-1.651,0,2.24,2.24,0,0,0-.49.865,3.13,3.13,0,0,0,0,1.868,2.239,2.239,0,0,0,.49.865,1.073,1.073,0,0,0,1.651,0,2.244,2.244,0,0,0,.49-.865,3.136,3.136,0,0,0,0-1.868A2.248,2.248,0,0,0,294.639,256.2Z" transform="translate(-280.695 -247.062)" fill="#3e7be6"/>
      </g>
    </g>
  </g>
</svg>
